<svg width="41" height="70" viewBox="0 0 41 70" fill="none" xmlns="http://www.w3.org/2000/svg">
<path fill-rule="evenodd" clip-rule="evenodd" d="M20.4167 0C22.0275 0 23.3333 1.30584 23.3333 2.91667V67.0833C23.3333 68.6942 22.0275 70 20.4167 70C18.8058 70 17.5 68.6942 17.5 67.0833V2.91667C17.5 1.30584 18.8058 0 20.4167 0Z" fill="#6665DD"/>
<path fill-rule="evenodd" clip-rule="evenodd" d="M3.84422 15.5112C6.30564 13.0498 9.64403 11.667 13.125 11.667H35C36.6108 11.667 37.9167 12.9728 37.9167 14.5837C37.9167 16.1945 36.6108 17.5003 35 17.5003H13.125C11.1911 17.5003 9.33647 18.2686 7.96901 19.636C6.60156 21.0035 5.83333 22.8581 5.83333 24.792C5.83333 26.7259 6.60156 28.5805 7.96901 29.948C9.33647 31.3154 11.1911 32.0837 13.125 32.0837H27.7083C31.1893 32.0837 34.5277 33.4665 36.9891 35.9279C39.4505 38.3893 40.8333 41.7277 40.8333 45.2087C40.8333 48.6896 39.4505 52.028 36.9891 54.4894C34.5277 56.9509 31.1893 58.3337 27.7083 58.3337H2.91667C1.30584 58.3337 0 57.0278 0 55.417C0 53.8062 1.30584 52.5003 2.91667 52.5003H27.7083C29.6422 52.5003 31.4969 51.7321 32.8643 50.3646C34.2318 48.9972 35 47.1425 35 45.2087C35 43.2748 34.2318 41.4201 32.8643 40.0527C31.4969 38.6852 29.6422 37.917 27.7083 37.917H13.125C9.64403 37.917 6.30564 36.5342 3.84422 34.0728C1.38281 31.6114 0 28.273 0 24.792C0 21.311 1.38281 17.9726 3.84422 15.5112Z" fill="#6665DD"/>
</svg>
