<svg width="65" height="65" viewBox="0 0 65 65" fill="none" xmlns="http://www.w3.org/2000/svg">
<path fill-rule="evenodd" clip-rule="evenodd" d="M29.6599 6.05813C33.5389 2.17917 38.7999 0 44.2855 0C49.7712 0 55.0322 2.17917 58.9112 6.05813C62.7901 9.93708 64.9693 15.1981 64.9693 20.6837C64.9693 26.1683 62.791 31.4284 58.9134 35.3071C58.9127 35.3078 58.9119 35.3086 58.9112 35.3093L39.0083 55.2713C38.4541 55.8271 37.7016 56.1395 36.9168 56.1395H11.8128C10.1817 56.1395 8.85938 54.8172 8.85938 53.186V28.082C8.85938 27.2987 9.17054 26.5475 9.72441 25.9937L29.6599 6.05813ZM44.2855 5.90682C40.3665 5.90682 36.6079 7.46367 33.8367 10.2349L14.7662 29.3054V50.2326H35.6909L54.7313 31.1357L54.7344 31.1326C57.5056 28.3614 59.0625 24.6028 59.0625 20.6837C59.0625 16.7647 57.5056 13.0061 54.7344 10.2349C51.9632 7.46367 48.2046 5.90682 44.2855 5.90682Z" fill="#6665DD"/>
<path fill-rule="evenodd" clip-rule="evenodd" d="M46.3896 18.6102C47.5429 19.7635 47.5429 21.6335 46.3896 22.7869L5.04179 64.1347C3.88841 65.2881 2.01841 65.2881 0.865034 64.1347C-0.288345 62.9813 -0.288345 61.1113 0.865034 59.9579L42.2128 18.6102C43.3662 17.4568 45.2362 17.4568 46.3896 18.6102Z" fill="#6665DD"/>
<path fill-rule="evenodd" clip-rule="evenodd" d="M20.6738 41.3724C20.6738 39.7412 21.9961 38.4189 23.6272 38.4189H48.7312C50.3624 38.4189 51.6847 39.7412 51.6847 41.3724C51.6847 43.0035 50.3624 44.3258 48.7312 44.3258H23.6272C21.9961 44.3258 20.6738 43.0035 20.6738 41.3724Z" fill="#6665DD"/>
</svg>
