<svg width="57" height="70" viewBox="0 0 57 70" fill="none" xmlns="http://www.w3.org/2000/svg">
<path fill-rule="evenodd" clip-rule="evenodd" d="M27.3881 0.202591C28.105 -0.0675302 28.895 -0.0675302 29.6119 0.202591L54.9452 9.74811C56.1812 10.2138 57 11.401 57 12.7274V35.0002C57 45.9663 49.7745 54.7286 43.2519 60.4632C39.9241 63.3889 36.6113 65.6758 34.1367 67.2299C32.8961 68.009 31.8577 68.6092 31.1222 69.0183C30.7543 69.2229 30.4615 69.3801 30.2565 69.4882C30.1539 69.5423 30.0733 69.5842 30.0161 69.6136L29.948 69.6485L29.9275 69.6589L29.9207 69.6623C29.9196 69.6628 29.9162 69.6646 28.5 66.8186C27.0838 69.6646 27.0829 69.6641 27.0819 69.6636L27.0725 69.6589L27.052 69.6485L26.9839 69.6136C26.9267 69.5842 26.8461 69.5423 26.7435 69.4882C26.5385 69.3801 26.2457 69.2229 25.8778 69.0183C25.1423 68.6092 24.1039 68.009 22.8633 67.2299C20.3887 65.6758 17.0759 63.3889 13.7481 60.4632C7.22553 54.7286 0 45.9663 0 35.0002V12.7274C0 11.401 0.818814 10.2138 2.05478 9.74811L27.3881 0.202591ZM28.5 66.8186L27.0819 69.6636C27.9734 70.1115 29.0247 70.1125 29.9162 69.6646L28.5 66.8186ZM28.5 63.2001C29.1068 62.8545 29.8829 62.3969 30.78 61.8335C33.0554 60.4046 36.0759 58.3165 39.0814 55.674C45.2255 50.2721 50.6667 43.1253 50.6667 35.0002V14.9324L28.5 6.58005L6.33333 14.9324V35.0002C6.33333 43.1253 11.7745 50.2721 17.9186 55.674C20.9241 58.3165 23.9446 60.4046 26.22 61.8335C27.1171 62.3969 27.8931 62.8545 28.5 63.2001Z" fill="#6665DD"/>
</svg>
