<svg width="60" height="60" viewBox="0 0 60 60" fill="none" xmlns="http://www.w3.org/2000/svg">
<path fill-rule="evenodd" clip-rule="evenodd" d="M0 26.6673C0 24.8263 1.49236 23.334 3.33328 23.334C12.1737 23.334 20.652 26.8458 26.9031 33.0969C33.1542 39.348 36.6661 47.8264 36.6661 56.6668C36.6661 58.5077 35.1737 60.0001 33.3328 60.0001C31.4919 60.0001 29.9995 58.5077 29.9995 56.6668C29.9995 49.5945 27.19 42.8118 22.1892 37.8109C17.1883 32.81 10.4056 30.0005 3.33328 30.0005C1.49236 30.0005 0 28.5082 0 26.6673Z" fill="#6665DD"/>
<path fill-rule="evenodd" clip-rule="evenodd" d="M0 3.33328C0 1.49236 1.49236 0 3.33328 0C18.362 0 32.7751 5.97013 43.402 16.597C54.0289 27.2239 59.999 41.6371 59.999 56.6657C59.999 58.5067 58.5067 59.999 56.6657 59.999C54.8248 59.999 53.3325 58.5067 53.3325 56.6657C53.3325 43.4051 48.0647 30.6876 38.688 21.311C29.3114 11.9343 16.5939 6.66656 3.33328 6.66656C1.49236 6.66656 0 5.1742 0 3.33328Z" fill="#6665DD"/>
<path fill-rule="evenodd" clip-rule="evenodd" d="M0 53.3326C0 49.6507 2.98472 46.666 6.66656 46.666C10.3484 46.666 13.3331 49.6507 13.3331 53.3326C13.3331 57.0144 10.3484 59.9991 6.66656 59.9991C2.98472 59.9991 0 57.0144 0 53.3326Z" fill="#6665DD"/>
</svg>
