<svg width="22" height="36" viewBox="0 0 22 36" fill="none" xmlns="http://www.w3.org/2000/svg">
<path fill-rule="evenodd" clip-rule="evenodd" d="M8.16529 2.8313C9.97814 1.01845 12.4369 0 15.0007 0H20.0007C20.737 0 21.334 0.596954 21.334 1.33333V8C21.334 8.73638 20.737 9.33333 20.0007 9.33333H15.0007C14.9122 9.33333 14.8275 9.36845 14.7649 9.43097C14.7024 9.49348 14.6673 9.57826 14.6673 9.66667V13.3333H20.0007C20.4112 13.3333 20.7989 13.5225 21.0516 13.8461C21.3043 14.1697 21.3938 14.5917 21.2942 14.99L19.6275 21.6567C19.4791 22.2503 18.9458 22.6667 18.334 22.6667H14.6673V34.6667C14.6673 35.403 14.0704 36 13.334 36H6.66732C5.93094 36 5.33398 35.403 5.33398 34.6667V22.6667H1.66732C0.930938 22.6667 0.333984 22.0697 0.333984 21.3333V14.6667C0.333984 13.9303 0.930938 13.3333 1.66732 13.3333H5.33398V9.66667C5.33398 7.10291 6.35243 4.64415 8.16529 2.8313ZM15.0007 2.66667C13.1441 2.66667 11.3637 3.40416 10.0509 4.71692C8.73815 6.02967 8.00065 7.81015 8.00065 9.66667V14.6667C8.00065 15.403 7.4037 16 6.66732 16H3.00065V20H6.66732C7.4037 20 8.00065 20.597 8.00065 21.3333V33.3333H12.0007V21.3333C12.0007 20.597 12.5976 20 13.334 20H17.2929L18.2929 16H13.334C12.5976 16 12.0007 15.403 12.0007 14.6667V9.66667C12.0007 8.87102 12.3167 8.10796 12.8793 7.54535C13.4419 6.98274 14.205 6.66667 15.0007 6.66667H18.6673V2.66667H15.0007Z" fill="#F3F3F3"/>
</svg>
