<svg width="40" height="40" viewBox="0 0 40 40" fill="none" xmlns="http://www.w3.org/2000/svg">
<path fill-rule="evenodd" clip-rule="evenodd" d="M11.6667 4.66667C7.80067 4.66667 4.66667 7.80067 4.66667 11.6667V28.3333C4.66667 32.1993 7.80067 35.3333 11.6667 35.3333H28.3333C32.1993 35.3333 35.3333 32.1993 35.3333 28.3333V11.6667C35.3333 7.80067 32.1993 4.66667 28.3333 4.66667H11.6667ZM2 11.6667C2 6.32791 6.32791 2 11.6667 2H28.3333C33.6721 2 38 6.32791 38 11.6667V28.3333C38 33.6721 33.6721 38 28.3333 38H11.6667C6.32791 38 2 33.6721 2 28.3333V11.6667Z" fill="#F3F3F3"/>
<path fill-rule="evenodd" clip-rule="evenodd" d="M20.8546 14.6521C19.7449 14.4875 18.6116 14.6771 17.6159 15.1938C16.6202 15.7104 15.8127 16.5279 15.3084 17.5299C14.804 18.532 14.6285 19.6675 14.8067 20.775C14.9849 21.8826 15.5078 22.9057 16.301 23.699C17.0943 24.4922 18.1174 25.0151 19.225 25.1933C20.3325 25.3716 21.4681 25.196 22.4701 24.6917C23.4721 24.1873 24.2896 23.3798 24.8063 22.3841C25.3229 21.3884 25.5125 20.2551 25.3479 19.1454C25.1801 18.0135 24.6526 16.9656 23.8435 16.1565C23.0344 15.3474 21.9865 14.8199 20.8546 14.6521ZM16.3877 12.8268C17.8813 12.0518 19.5812 11.7675 21.2457 12.0143C22.9436 12.266 24.5154 13.0572 25.7291 14.2709C26.9428 15.4846 27.734 17.0564 27.9857 18.7543C28.2326 20.4188 27.9483 22.1187 27.1733 23.6123C26.3983 25.1059 25.172 26.3171 23.669 27.0736C22.166 27.8301 20.4626 28.0935 18.8013 27.8261C17.14 27.5588 15.6053 26.7744 14.4154 25.5846C13.2256 24.3948 12.4412 22.86 12.1739 21.1987C11.9065 19.5374 12.1699 17.8341 12.9264 16.331C13.6829 14.828 14.8941 13.6018 16.3877 12.8268Z" fill="#F3F3F3"/>
<path fill-rule="evenodd" clip-rule="evenodd" d="M27.834 10.8333C27.834 10.097 28.4309 9.5 29.1673 9.5H29.184C29.9204 9.5 30.5173 10.097 30.5173 10.8333C30.5173 11.5697 29.9204 12.1667 29.184 12.1667H29.1673C28.4309 12.1667 27.834 11.5697 27.834 10.8333Z" fill="#F3F3F3"/>
</svg>
