<svg width="248" height="27" viewBox="0 0 248 27" fill="none" xmlns="http://www.w3.org/2000/svg">
<path d="M0.196 26H5.956V16.64H16.36V12.068H5.956V6.092H17.764V1.52H0.196V26ZM20.79 4.688H26.298V0.079999H20.79V4.688ZM20.79 26H26.298V6.632H20.79V26ZM30.0009 26H35.5089V14.876C35.5089 12.392 36.9129 10.484 39.1089 10.484C41.1249 10.484 42.0969 11.744 42.0969 14.192V26H47.6049V13.076C47.6049 8.288 44.8329 6.02 41.1249 6.02C38.7489 6.02 36.7689 7.028 35.5089 9.188V6.632H30.0009V26ZM58.6128 26.576C60.6288 26.576 62.3208 25.64 63.5088 23.948V26H69.0168V0.079999H63.5088V8.54C62.3208 6.884 60.6648 6.02 58.6128 6.02C53.7168 6.02 50.5128 9.728 50.5128 16.316C50.5128 22.688 53.6448 26.576 58.6128 26.576ZM59.8008 22.112C57.4608 22.112 56.1648 20.06 56.1648 16.316C56.1648 12.536 57.4248 10.484 59.8008 10.484C62.2128 10.484 63.5088 12.572 63.5088 16.316C63.5088 20.096 62.2488 22.112 59.8008 22.112ZM80.2209 19.7C80.2209 24.2 82.2009 26.576 86.3409 26.576C87.8169 26.576 89.0409 26.36 89.6529 26.072V21.932H88.6089C86.2329 21.932 85.7289 20.888 85.7289 19.016V10.808H89.6889V6.632H85.7289V2.132H80.2209V6.632H77.8449V10.808H80.2209V19.7ZM92.1572 26H97.6652V14.876C97.6652 12.392 99.0692 10.484 101.265 10.484C103.281 10.484 104.253 11.744 104.253 14.192V26H109.761V13.076C109.761 8.288 106.989 6.02 103.281 6.02C100.905 6.02 98.9252 7.028 97.6652 9.188V0.079999H92.1572V26ZM131.749 19.628H125.989C125.413 21.392 124.189 22.184 122.389 22.184C120.013 22.184 118.573 20.528 118.285 17.432H131.605V16.208C131.605 9.872 127.969 6.02 122.173 6.02C116.413 6.02 112.669 9.728 112.669 16.316C112.669 22.688 116.377 26.576 122.389 26.576C127.141 26.576 130.741 24.092 131.749 19.628ZM122.173 10.412C124.189 10.412 125.485 11.744 125.917 14.264H118.393C118.825 11.744 120.121 10.412 122.173 10.412ZM141.735 26H147.495V15.812H157.143V26H162.903V1.52H157.143V11.132H147.495V1.52H141.735V26ZM175.646 26.576C181.406 26.576 185.186 22.868 185.186 16.316C185.186 9.98 181.514 6.02 175.646 6.02C169.886 6.02 166.142 9.728 166.142 16.316C166.142 22.688 169.778 26.576 175.646 26.576ZM175.646 22.112C173.162 22.112 171.794 20.06 171.794 16.316C171.794 12.536 173.126 10.484 175.646 10.484C178.166 10.484 179.534 12.572 179.534 16.316C179.534 20.096 178.202 22.112 175.646 22.112ZM199.979 17.756C199.979 20.24 198.611 22.112 196.487 22.112C194.543 22.112 193.607 20.888 193.607 18.404V6.632H188.099V19.52C188.099 24.344 190.799 26.576 194.471 26.576C196.811 26.576 198.719 25.568 199.979 23.408V26H205.487V6.632H199.979V17.756ZM214.015 11.996C214.015 10.952 214.951 10.232 216.391 10.232C218.335 10.232 219.487 11.06 219.811 13.04H225.283C224.743 8.144 221.215 6.02 216.571 6.02C211.387 6.02 208.759 9.044 208.759 12.284C208.759 20.06 220.495 16.712 220.495 20.456C220.495 21.644 219.523 22.4 217.579 22.4C215.527 22.4 214.051 21.428 213.799 19.628H208.291C209.011 24.416 212.539 26.576 217.435 26.576C222.475 26.576 226.003 23.948 226.003 20.132C226.003 12.464 214.015 15.812 214.015 11.996ZM247.026 19.628H241.266C240.69 21.392 239.466 22.184 237.666 22.184C235.29 22.184 233.85 20.528 233.562 17.432H246.882V16.208C246.882 9.872 243.246 6.02 237.45 6.02C231.69 6.02 227.946 9.728 227.946 16.316C227.946 22.688 231.654 26.576 237.666 26.576C242.418 26.576 246.018 24.092 247.026 19.628ZM237.45 10.412C239.466 10.412 240.762 11.744 241.194 14.264H233.67C234.102 11.744 235.398 10.412 237.45 10.412Z" fill="#473BF0"/>
</svg>
