<?xml version="1.0" encoding="UTF-8" standalone="no"?>
<!-- Created with Inkscape (http://www.inkscape.org/) -->

<svg
   width="310"
   height="259.34375"
   id="svg2"
   version="1.1"
   inkscape:version="1.1.2 (0a00cf5339, 2022-02-04)"
   sodipodi:docname="menu-icon.svg"
   xmlns:inkscape="http://www.inkscape.org/namespaces/inkscape"
   xmlns:sodipodi="http://sodipodi.sourceforge.net/DTD/sodipodi-0.dtd"
   xmlns="http://www.w3.org/2000/svg"
   xmlns:svg="http://www.w3.org/2000/svg"
   xmlns:rdf="http://www.w3.org/1999/02/22-rdf-syntax-ns#"
   xmlns:cc="http://creativecommons.org/ns#"
   xmlns:dc="http://purl.org/dc/elements/1.1/">
  <title
     id="title3842">Hamburger (Menu) Icon</title>
  <defs
     id="defs4" />
  <sodipodi:namedview
     id="base"
     pagecolor="#ffffff"
     bordercolor="#666666"
     borderopacity="1.0"
     inkscape:pageopacity="0.0"
     inkscape:pageshadow="2"
     inkscape:zoom="0.27057957"
     inkscape:cx="576.54021"
     inkscape:cy="247.61663"
     inkscape:document-units="px"
     inkscape:current-layer="layer1"
     showgrid="false"
     showborder="true"
     inkscape:showpageshadow="false"
     fit-margin-top="5"
     fit-margin-right="5"
     fit-margin-bottom="5"
     fit-margin-left="5"
     inkscape:window-width="1366"
     inkscape:window-height="768"
     inkscape:window-x="0"
     inkscape:window-y="0"
     inkscape:window-maximized="1"
     inkscape:pagecheckerboard="0"
     inkscape:lockguides="false" />
  <metadata
     id="metadata7">
    <rdf:RDF>
      <cc:Work
         rdf:about="">
        <dc:format>image/svg+xml</dc:format>
        <dc:type
           rdf:resource="http://purl.org/dc/dcmitype/StillImage" />
        <dc:title>Hamburger (Menu) Icon</dc:title>
        <dc:date>2015-06-29</dc:date>
        <dc:creator>
          <cc:Agent>
            <dc:title>Daniel Fowler</dc:title>
          </cc:Agent>
        </dc:creator>
        <dc:rights>
          <cc:Agent>
            <dc:title>Public Domain</dc:title>
          </cc:Agent>
        </dc:rights>
        <dc:publisher>
          <cc:Agent>
            <dc:title>openclipart.org</dc:title>
          </cc:Agent>
        </dc:publisher>
        <dc:language>en-GB</dc:language>
        <dc:subject>
          <rdf:Bag>
            <rdf:li>icon</rdf:li>
            <rdf:li>menu</rdf:li>
            <rdf:li>hamburger</rdf:li>
            <rdf:li>basic</rdf:li>
            <rdf:li>simple</rdf:li>
            <rdf:li>black</rdf:li>
            <rdf:li>white</rdf:li>
            <rdf:li>lines</rdf:li>
            <rdf:li>rounded</rdf:li>
            <rdf:li>open</rdf:li>
            <rdf:li>close</rdf:li>
            <rdf:li>norm</rdf:li>
            <rdf:li>cox</rdf:li>
            <rdf:li>star</rdf:li>
            <rdf:li>xerox</rdf:li>
          </rdf:Bag>
        </dc:subject>
        <cc:license
           rdf:resource="http://creativecommons.org/licenses/publicdomain/" />
        <dc:description>A simple and basic hamburger (menu) icon. It originates from Xerox &quot;Star&quot; workstations of the 1980's but is now popular to hide/show menus on mobile devices.</dc:description>
        <dc:contributor>
          <cc:Agent>
            <dc:title>Norm Cox</dc:title>
          </cc:Agent>
        </dc:contributor>
      </cc:Work>
      <cc:License
         rdf:about="http://creativecommons.org/licenses/publicdomain/">
        <cc:permits
           rdf:resource="http://creativecommons.org/ns#Reproduction" />
        <cc:permits
           rdf:resource="http://creativecommons.org/ns#Distribution" />
        <cc:permits
           rdf:resource="http://creativecommons.org/ns#DerivativeWorks" />
      </cc:License>
    </rdf:RDF>
  </metadata>
  <g
     inkscape:label="Layer 1"
     inkscape:groupmode="layer"
     id="layer1"
     transform="translate(10.015625,-803.03125)"
     style="display:inline">
    <g
       id="g3837"
       style="fill:#473bf0;fill-opacity:1;opacity:1;stroke-width:0;stroke-miterlimit:4;stroke-dasharray:none">
      <path
         inkscape:connector-curvature="0"
         id="path3785-0"
         d="M 19.668179,1032.694 H 270.31428 v 0"
         style="fill:#473bf0;stroke:#000000;stroke-width:0;stroke-linecap:round;stroke-linejoin:miter;stroke-miterlimit:4;stroke-dasharray:none;stroke-opacity:1;fill-opacity:1" />
      <path
         inkscape:connector-curvature="0"
         id="path3785-0-9"
         d="M 19.668179,932.694 H 270.31428 v 0"
         style="fill:#473bf0;stroke:#000000;stroke-width:0;stroke-linecap:round;stroke-linejoin:miter;stroke-miterlimit:4;stroke-dasharray:none;stroke-opacity:1;fill-opacity:1" />
      <path
         inkscape:connector-curvature="0"
         id="path3785-0-4"
         d="M 19.668179,832.694 H 270.31428 v 0"
         style="fill:#473bf0;stroke:#000000;stroke-width:0;stroke-linecap:round;stroke-linejoin:miter;stroke-miterlimit:4;stroke-dasharray:none;stroke-opacity:1;fill-opacity:1" />
      <path
         style="fill:#473bf0;stroke-width:0;fill-opacity:1;stroke-miterlimit:4;stroke-dasharray:none"
         d="M 16.477561,48.550743 C 7.5433815,42.54902 3.915008,31.693617 7.6037122,22.001874 9.1643487,17.90144 12.961502,13.091385 16.543324,10.677596 L 22.769937,6.4814815 H 155.85661 288.94328 l 6.91726,6.3391865 c 6.42526,5.888319 6.91724,7.083837 6.91724,16.808962 0,9.725124 -0.49198,10.920642 -6.91724,16.808961 l -6.91726,6.339187 H 155.85661 22.769937 Z"
         id="path1156"
         transform="translate(-10.015625,803.03125)" />
      <path
         style="fill:#473bf0;stroke-width:0;fill-opacity:1;stroke-miterlimit:4;stroke-dasharray:none"
         d="m 92.264874,153.2414 c 34.958646,-0.28191 91.625306,-0.28175 125.925926,3.4e-4 34.30061,0.2821 5.69809,0.51275 -63.56117,0.51256 -69.25926,-1.9e-4 -97.3234,-0.23099 -62.364756,-0.5129 z"
         id="path1195"
         transform="translate(-10.015625,803.03125)" />
      <path
         style="fill:#473bf0;stroke-width:0;fill-opacity:1;stroke-miterlimit:4;stroke-dasharray:none"
         d="M 16.477561,148.55074 C 7.5433815,142.54902 3.915008,131.69362 7.6037122,122.00187 9.1643487,117.90144 12.961502,113.09139 16.543324,110.6776 l 6.226613,-4.19612 H 155.85661 288.94328 l 6.91726,6.33919 c 6.42526,5.88832 6.91724,7.08383 6.91724,16.80896 0,9.72512 -0.49198,10.92064 -6.91724,16.80896 l -6.91726,6.33919 H 155.85661 22.769937 Z"
         id="path1234"
         transform="translate(-10.015625,803.03125)" />
      <path
         style="fill:#473bf0;stroke-width:0;fill-opacity:1;stroke-miterlimit:4;stroke-dasharray:none"
         d="m 18.912368,148.81726 c -15.2091041,-9.73891 -15.0876228,-28.97857 0.242798,-38.45329 6.22403,-3.84666 7.495506,-3.88249 137.792374,-3.88249 h 131.51039 l 6.69696,7.41274 c 5.6017,6.20043 6.69696,8.77387 6.69696,15.73541 0,6.96154 -1.09526,9.53498 -6.69696,15.73541 l -6.69696,7.41274 -131.72897,-0.0312 c -130.729866,-0.031 -131.775132,-0.0608 -137.816592,-3.92932 z"
         id="path1273"
         transform="translate(-10.015625,803.03125)" />
      <path
         style="fill:#473bf0;stroke-width:0;fill-opacity:1;stroke-miterlimit:4;stroke-dasharray:none"
         d="m 18.912368,148.81726 c -15.2091041,-9.73891 -15.0876228,-28.97857 0.242798,-38.45329 6.22403,-3.84666 7.495506,-3.88249 137.792374,-3.88249 h 131.51039 l 6.69696,7.41274 c 5.6017,6.20043 6.69696,8.77387 6.69696,15.73541 0,6.96154 -1.09526,9.53498 -6.69696,15.73541 l -6.69696,7.41274 -131.72897,-0.0312 c -130.729866,-0.031 -131.775132,-0.0608 -137.816592,-3.92932 z"
         id="path1312"
         transform="translate(-10.015625,803.03125)" />
      <path
         style="fill:#473bf0;stroke-width:0;fill-opacity:1;stroke-miterlimit:4;stroke-dasharray:none"
         d="M 16.477561,248.55074 C 7.5433815,242.54902 3.915008,231.69362 7.6037122,222.00187 9.1643487,217.90144 12.961502,213.09139 16.543324,210.6776 l 6.226613,-4.19612 H 155.85661 288.94328 l 6.91726,6.33919 c 6.42526,5.88832 6.91724,7.08383 6.91724,16.80896 0,9.72512 -0.49198,10.92064 -6.91724,16.80896 l -6.91726,6.33919 H 155.85661 22.769937 Z"
         id="path1499"
         transform="translate(-10.015625,803.03125)" />
      <path
         style="fill:#473bf0;stroke-width:0;fill-opacity:1;stroke-miterlimit:4;stroke-dasharray:none"
         d="m 18.912368,248.81726 c -15.2091041,-9.73891 -15.0876228,-28.97857 0.242798,-38.45329 6.22403,-3.84666 7.495506,-3.88249 137.792374,-3.88249 h 131.51039 l 6.69696,7.41274 c 5.6017,6.20043 6.69696,8.77387 6.69696,15.73541 0,6.96154 -1.09526,9.53498 -6.69696,15.73541 l -6.69696,7.41274 -131.72897,-0.0312 c -130.729866,-0.031 -131.775132,-0.0608 -137.816592,-3.92932 z"
         id="path1538"
         transform="translate(-10.015625,803.03125)" />
      <path
         style="fill:#473bf0;stroke-width:0;fill-opacity:1;stroke-miterlimit:4;stroke-dasharray:none"
         d="m 18.749257,149.90358 c -2.373085,-1.62498 -4.732094,-3.456 -5.740954,-4.45602 -2.938715,-2.91296 -5.0004954,-6.48003 -6.1127982,-10.5757 -0.3831282,-1.41074 -0.4806973,-2.45129 -0.4806973,-5.12649 0,-3.90912 0.41137,-5.83452 1.921468,-8.99337 2.2226735,-4.64942 5.2942855,-7.97161 10.7864305,-11.66635 l 3.698981,-2.48843 h 133.039483 133.0395 l 4.1029,3.78407 c 9.47125,8.73521 9.54314,8.8802 9.54314,19.24834 0,10.36814 -0.0719,10.51313 -9.54314,19.24834 l -4.1029,3.78407 H 155.83915 22.777639 Z"
         id="path2491"
         transform="translate(-10.015625,803.03125)" />
    </g>
  </g>
</svg>
