<svg width="40" height="34" viewBox="0 0 40 34" fill="none" xmlns="http://www.w3.org/2000/svg">
<path fill-rule="evenodd" clip-rule="evenodd" d="M24.3288 1.22889C26.013 0.586063 27.854 0.475994 29.6028 0.913569C31.0579 1.27765 32.3907 2.00623 33.4788 3.02422C34.9302 2.51057 36.3054 1.79981 37.5656 0.910933L38.3341 2.00048L39.6296 2.31597C39.0602 4.65414 37.9068 6.80546 36.2824 8.57086C36.3158 8.87799 36.3331 9.18682 36.3341 9.49608L36.3341 9.50048C36.3341 19.5504 31.5016 26.8922 24.5856 30.5733C17.702 34.2372 8.88862 34.2042 1.01993 29.8327C0.480183 29.5328 0.216922 28.9016 0.383654 28.3071C0.550385 27.7126 1.10349 27.3103 1.72045 27.3349C4.79477 27.4572 7.83583 26.792 10.5613 25.4202C7.81778 23.8349 5.88783 21.9183 4.57749 19.8493C2.94244 17.2676 2.32269 14.5294 2.2105 12.061C2.09857 9.59853 2.48984 7.37735 2.90263 5.78122C3.10983 4.98006 3.32465 4.32797 3.48973 3.87137C3.57234 3.64286 3.64273 3.46268 3.6938 3.33661C3.71935 3.27355 3.74008 3.22397 3.75513 3.18859L3.77334 3.14622L3.77904 3.13317L3.78101 3.12871L3.78177 3.127C3.78208 3.12629 3.78237 3.12563 5.00079 3.66715L6.09193 2.90087C7.64942 5.11865 9.73123 6.91683 12.1519 8.13525C14.1849 9.15853 16.404 9.74621 18.6675 9.8666V9.55908C18.6452 7.75974 19.1752 5.99675 20.1859 4.5078C21.1984 3.01629 22.6446 1.87172 24.3288 1.22889ZM5.49657 6.40192C5.4925 6.41752 5.48843 6.43318 5.48436 6.44891C5.1159 7.87362 4.77801 9.8191 4.87441 11.9399C4.97055 14.0549 5.49664 16.3167 6.83034 18.4225C8.15867 20.5199 10.3388 22.5435 13.8756 24.1154C14.318 24.312 14.6191 24.733 14.6622 25.2152C14.7052 25.6974 14.4835 26.1651 14.083 26.437C11.9183 27.9064 9.50925 28.9435 6.98773 29.5106C12.7378 31.3025 18.5962 30.7403 23.3327 28.2193C29.3328 25.0257 33.6668 18.6183 33.6675 9.50268C33.6661 9.12171 33.6294 8.74169 33.5578 8.36748C33.4743 7.93034 33.6143 7.48032 33.9312 7.16781C34.5824 6.5256 35.1518 5.81138 35.6299 5.04171C34.932 5.34476 34.2159 5.60716 33.4852 5.82719C32.9831 5.97841 32.4389 5.82119 32.0947 5.42547C31.2702 4.47742 30.1744 3.80546 28.9555 3.50049C27.7367 3.19551 26.4536 3.27222 25.2797 3.72025C24.1059 4.16829 23.0979 4.96602 22.3923 6.00556C21.6866 7.04509 21.3172 8.27628 21.334 9.53261L21.3342 9.55048H21.3341V11.2171C21.3341 11.9401 20.758 12.5313 20.0354 12.55C16.8866 12.6317 13.7665 11.9333 10.953 10.5172C8.89544 9.48156 7.04853 8.08553 5.49657 6.40192Z" fill="#F3F3F3"/>
</svg>
